<svg width="336" height="106" viewBox="0 0 336 106" fill="none" xmlns="http://www.w3.org/2000/svg">
<g clip-path="url(#clip0_11061_59095)">
<path d="M330.278 76.6679C328.632 76.6679 327.29 76.1403 326.229 75.0853C325.168 74.0393 324.643 72.6816 324.643 71.0331C324.643 69.3847 325.168 68.036 326.229 66.981C327.284 65.9259 328.632 65.3984 330.278 65.3984C331.923 65.3984 333.254 65.9259 334.324 66.981C335.385 68.036 335.912 69.3937 335.912 71.0331C335.912 72.6726 335.385 74.0393 334.324 75.0853C333.263 76.1403 331.914 76.6679 330.278 76.6679ZM330.278 75.424C331.528 75.424 332.565 75.0134 333.371 74.1892C334.177 73.3739 334.579 72.3099 334.579 71.0271C334.579 69.7444 334.177 68.6893 333.371 67.8651C332.556 67.0499 331.528 66.6363 330.278 66.6363C329.028 66.6363 327.991 67.0409 327.194 67.8651C326.387 68.6804 325.974 69.7414 325.974 71.0271C325.974 72.3129 326.378 73.365 327.194 74.1892C328 75.0044 329.028 75.424 330.278 75.424ZM328.162 73.9344V68.0539H330.673C331.33 68.0539 331.848 68.2278 332.226 68.5815C332.607 68.9441 332.795 69.4147 332.795 70.0141C332.795 70.9133 332.259 71.5876 331.381 71.8184L332.867 73.9284H331.381L329.972 71.8933H329.504V73.9284H328.162V73.9374V73.9344ZM329.504 70.7964H330.613C331.231 70.7964 331.537 70.5326 331.537 70.0141C331.537 69.4956 331.222 69.2318 330.598 69.2318H329.504V70.7964Z" fill="white"/>
<path d="M85.1769 64.8956V9.42969H94.2913V41.9162L111.288 22.923H122.378L103.795 43.4987L123.571 64.8896H112.481L94.2853 45.0872V64.8896H85.1709L85.1799 64.8986L85.1769 64.8956Z" fill="white"/>
<path d="M127.863 62.0014C125.27 59.5647 123.963 56.4326 123.963 52.6442C123.963 48.8557 125.354 45.7986 128.174 43.2869C130.956 40.8083 134.822 39.5734 139.765 39.5734H150.467V37.5653C150.467 32.8028 147.299 30.0604 142.159 30.0604C138.146 30.0604 135.512 32.1854 134.624 34.8199H125.279C126.241 31.0734 128.174 28.0163 131.154 25.6515C134.133 23.2957 137.801 22.1328 142.159 22.1328C147.647 22.1328 151.933 23.4845 154.984 26.236C158.035 28.9784 159.54 32.7758 159.54 37.5683V64.9146H151.618L150.845 59.7655H150.458C149.571 61.354 148.025 62.7057 145.819 63.9016C143.613 65.1035 141.065 65.6789 138.17 65.6789C133.884 65.6789 130.446 64.4441 127.854 62.0044L127.863 61.9954V62.0014ZM150.461 48.6579V46.6888H140.187C135.434 46.6888 133.081 48.541 133.039 52.2246C133.039 55.4705 135.547 57.7933 140.187 57.7933C146.52 57.7933 150.461 54.2776 150.461 48.6669V48.6579Z" fill="white"/>
<path d="M169.428 80.7589V22.9312H176.963L178.123 28.0804H178.551C181.06 24.5617 185.544 22.125 190.801 22.125C196.058 22.125 200.688 24.0192 204.012 27.8077C207.336 31.6381 208.997 36.9761 208.997 43.9025C208.997 50.829 207.336 56.2 204.012 59.9974C200.688 63.7859 196.288 65.6801 190.801 65.6801C188.136 65.6801 185.699 65.1046 183.577 63.9747C181.455 62.8537 179.909 61.5769 178.938 60.1443H178.551V80.7619H169.428V80.7589ZM189.203 57.3599C192.329 57.3599 194.88 56.197 196.888 53.9161C198.896 51.6353 199.897 48.2664 199.897 43.8995C199.897 39.5327 198.893 36.1668 196.888 33.883C194.88 31.6021 192.329 30.4392 189.203 30.4392C186.077 30.4392 183.526 31.5991 181.551 33.883C179.543 36.1638 178.542 39.5327 178.542 43.8995C178.542 48.2664 179.546 51.6353 181.551 53.9161C183.517 56.197 186.068 57.3599 189.203 57.3599Z" fill="white"/>
<path d="M217.767 16.5855C216.649 15.5394 216.104 14.1877 216.104 12.5992C216.104 11.0107 216.646 9.70093 217.725 8.65491C218.804 7.6089 220.159 7.06641 221.822 7.06641C225.221 7.06641 227.58 9.42219 227.58 12.6022C227.58 15.7822 225.227 18.171 221.822 18.171C220.201 18.171 218.843 17.6285 217.767 16.5825V16.5915V16.5855ZM217.305 64.8941V22.9305H226.42V64.8971H217.305V64.8941Z" fill="white"/>
<path d="M251.677 64.8975C244.223 64.8975 239.814 60.5635 239.814 53.4063V31.2421H233.094V22.9219H239.814L241.016 11.8203H248.937V22.9219H259.212V31.2421H248.937V52.2044C248.937 54.6411 250.64 56.5773 253.265 56.5773H259.212V64.8975H251.677Z" fill="white"/>
<path d="M269.027 62.0014C266.437 59.5647 265.127 56.4326 265.127 52.6442C265.127 48.8557 266.518 45.7986 269.341 43.2869C272.12 40.8083 275.986 39.5734 280.932 39.5734H291.635V37.5653C291.635 32.8028 288.467 30.0604 283.326 30.0604C279.31 30.0604 276.679 32.1854 275.788 34.8199H266.446C267.408 31.0734 269.341 28.0163 272.318 25.6515C275.297 23.2957 278.965 22.1328 283.326 22.1328C288.811 22.1328 293.097 23.4845 296.148 26.236C299.202 28.9784 300.707 32.7758 300.707 37.5683V64.9146H292.785L292.012 59.7655H291.626C290.735 61.354 289.189 62.7057 286.986 63.9016C284.78 65.1035 282.232 65.6789 279.334 65.6789C275.048 65.6789 271.61 64.4441 269.021 62.0044L269.027 61.9954V62.0014ZM291.626 48.6579V46.6888H281.351C276.595 46.6888 274.242 48.541 274.203 52.2246C274.203 55.4705 276.712 57.7933 281.351 57.7933C287.684 57.7933 291.626 54.2776 291.626 48.6669V48.6579Z" fill="white"/>
<path d="M310.979 64.8956V9.42969H320.093V64.8956H310.979Z" fill="white"/>
<mask id="mask0_11061_59095" style="mask-type:luminance" maskUnits="userSpaceOnUse" x="0" y="0" width="66" height="77">
<path d="M65.4675 0H0V76.4792H65.4675V0Z" fill="white"/>
</mask>
<g mask="url(#mask0_11061_59095)">
<path d="M5.40092 36.4188L0 26.5131H24.8257C28.0956 26.5341 31.1258 24.7717 32.7682 21.8974L45.2665 0L50.7843 9.80679L38.2561 31.7971C36.6346 34.6445 33.6494 36.4038 30.4124 36.4218H5.40092V36.4188Z" fill="white"/>
<path d="M50.7813 66.6781L45.2665 76.4819L32.7682 54.5845C31.1258 51.7102 28.0956 49.9478 24.8257 49.9688H0L5.5388 40.129H30.3555C33.6254 40.1111 36.6526 41.8764 38.292 44.7507L50.7813 66.6781Z" fill="white"/>
<path d="M54.2847 11.6953H65.4642L52.9659 33.5927C51.3235 36.4671 51.3235 40.0157 52.9659 42.89L65.4642 64.7875H54.2817L41.8074 42.884C40.171 40.0127 40.171 36.473 41.8074 33.6017L54.2847 11.6953Z" fill="white"/>
</g>
<path d="M206.319 96.544C206.319 97.8662 205.859 98.8566 204.94 99.5152C204.02 100.174 202.793 100.506 201.253 100.506H196.453V86.6211H200.822C204.006 86.6211 205.598 87.8721 205.598 90.3789C205.598 91.3978 205.006 92.2934 203.821 93.0516C204.599 93.3501 205.205 93.7956 205.651 94.3784C206.091 94.966 206.314 95.6863 206.314 96.544H206.319ZM203.584 90.3979C203.584 89.597 203.338 89.0426 202.85 88.7346C202.362 88.4266 201.632 88.2749 200.665 88.2749H198.419V92.5398H200.319C201.3 92.5256 202.087 92.3502 202.689 92.0091C203.286 91.6679 203.584 91.1324 203.584 90.3979ZM204.319 96.5867C204.319 95.7716 204.058 95.1556 203.542 94.7481C203.025 94.3405 202.305 94.1368 201.376 94.1368H198.414V98.8945H201.172C202.125 98.8945 202.888 98.7049 203.457 98.3306C204.03 97.9562 204.314 97.3733 204.314 96.5867H204.319Z" fill="white"/>
<path d="M211.584 92.0971C210.683 92.0971 209.731 92.3198 208.726 92.77L208.176 91.2204C208.532 90.974 209.067 90.7702 209.778 90.5996C210.494 90.429 211.081 90.3438 211.546 90.3438C212.294 90.3438 212.977 90.4954 213.588 90.8034C214.199 91.1114 214.678 91.5284 215.029 92.0592C215.375 92.5899 215.55 93.168 215.55 93.7936V100.513H214.18L213.934 99.5748C213.564 99.9018 213.119 100.181 212.588 100.414C212.058 100.646 211.541 100.76 211.039 100.76C209.906 100.76 209.053 100.475 208.466 99.9113C207.878 99.3474 207.589 98.5939 207.589 97.6556C207.589 96.7174 207.921 95.9355 208.579 95.4C209.238 94.8645 210.119 94.5944 211.223 94.5944H213.569C213.569 93.7888 213.422 93.1728 213.128 92.7463C212.835 92.3198 212.323 92.1018 211.588 92.1018L211.584 92.0971ZM211.176 95.8928C210.603 95.8928 210.157 96.0634 209.83 96.4046C209.503 96.7458 209.342 97.1581 209.342 97.6509C209.342 98.0727 209.484 98.4375 209.769 98.7456C210.053 99.0536 210.461 99.2052 210.996 99.2052C211.475 99.2052 211.934 99.0867 212.384 98.8498C212.835 98.6129 213.233 98.2954 213.588 97.9021V95.9023H211.181L211.176 95.8928Z" fill="white"/>
<path d="M222.715 91.9501C222.251 91.9501 221.748 92.097 221.203 92.3908C220.658 92.6846 220.123 93.0637 219.592 93.5234V100.508H217.63V90.6043H219L219.346 91.9122C219.877 91.4383 220.474 91.045 221.142 90.737C221.81 90.4337 222.469 90.2773 223.123 90.2773C224.198 90.2773 224.999 90.6091 225.52 91.2772C226.046 91.9454 226.307 92.841 226.307 93.9736V100.508H224.345V94.1584C224.345 93.4381 224.227 92.8884 223.99 92.514C223.753 92.1397 223.326 91.9501 222.715 91.9501Z" fill="white"/>
<path d="M232.746 99.0948C233.305 99.0948 233.788 99.0427 234.196 98.929C234.604 98.82 235.049 98.6494 235.523 98.4172L236.115 99.8246C235.708 100.095 235.158 100.322 234.471 100.497C233.784 100.673 233.21 100.763 232.746 100.763C231.751 100.763 230.884 100.545 230.144 100.109C229.4 99.6729 228.832 99.0616 228.429 98.2703C228.026 97.4836 227.827 96.5691 227.827 95.536C227.827 94.503 228.031 93.6121 228.438 92.8207C228.846 92.0341 229.429 91.418 230.182 90.9821C230.94 90.5461 231.817 90.3281 232.827 90.3281C233.277 90.3281 233.841 90.4229 234.523 90.603C235.205 90.7878 235.746 91.0152 236.158 91.2853L235.584 92.6738C235.025 92.4416 234.551 92.271 234.168 92.162C233.779 92.053 233.329 91.9962 232.808 91.9962C231.907 91.9962 231.192 92.3279 230.651 92.996C230.111 93.6642 229.836 94.4982 229.822 95.5076C229.822 96.5691 230.083 97.4315 230.599 98.0902C231.116 98.7489 231.831 99.0806 232.741 99.0806L232.746 99.0948Z" fill="white"/>
<path d="M241.617 100.775C240.622 100.775 239.755 100.557 239.016 100.121C238.272 99.6847 237.703 99.0734 237.31 98.282C236.916 97.4954 236.717 96.5808 236.717 95.5477C236.717 94.5147 236.921 93.6238 237.329 92.8324C237.736 92.0458 238.314 91.4298 239.063 90.9938C239.812 90.5578 240.688 90.3398 241.698 90.3398C242.707 90.3398 243.56 90.5578 244.299 90.9938C245.043 91.4298 245.612 92.0411 246.015 92.8324C246.418 93.6238 246.617 94.5336 246.617 95.5714C246.617 96.6092 246.413 97.4954 246.005 98.2867C245.598 99.0781 245.015 99.6894 244.261 100.125C243.503 100.561 242.627 100.779 241.617 100.779V100.775ZM244.622 95.5904C244.622 94.5289 244.361 93.6665 243.844 93.0078C243.328 92.3491 242.612 92.0174 241.698 92.0174C240.783 92.0174 240.082 92.3491 239.546 93.0172C239.011 93.6854 238.731 94.5194 238.717 95.5288C238.717 96.5903 238.978 97.4527 239.494 98.1114C240.011 98.7701 240.726 99.1018 241.636 99.1018C242.546 99.1018 243.252 98.7701 243.792 98.1019C244.328 97.4338 244.607 96.5997 244.622 95.5904Z" fill="white"/>
<path d="M246.986 100.506L252.194 86.6211H255.909L261.094 100.34L257.44 100.709L256.44 97.7714H251.64L250.683 100.506H246.986ZM252.663 94.8523H255.379L253.99 91.0755L252.663 94.8523Z" fill="white"/>
<path d="M266.576 97.8524C266.794 97.8524 267.102 97.7956 267.495 97.6771C267.888 97.5586 268.249 97.4307 268.576 97.279V90.6211H272.291V100.525H270.495L269.433 99.5063C267.988 100.402 266.642 100.852 265.391 100.852C264.14 100.852 263.297 100.501 262.695 99.8001C262.098 99.0987 261.794 98.1699 261.794 97.0137V90.6211H265.51V96.663C265.51 97.0042 265.59 97.2838 265.756 97.5112C265.922 97.734 266.192 97.8477 266.571 97.8477L266.576 97.8524Z" fill="white"/>
<path d="M278.603 91.0126H281.195L281.541 93.9316H278.603V96.3816C278.603 96.7891 278.707 97.1113 278.921 97.353C279.134 97.59 279.414 97.7084 279.769 97.7084C280.257 97.7084 280.736 97.5805 281.2 97.3199L282.262 99.8504C282.006 100.068 281.598 100.267 281.048 100.452C280.499 100.637 279.992 100.727 279.527 100.727C278.712 100.727 277.949 100.575 277.238 100.277C276.532 99.9783 275.964 99.5328 275.533 98.9405C275.106 98.3482 274.888 97.6326 274.888 96.7891V93.9316H273.357V91.0126H274.888V88.3399L278.603 87.8281V91.0126Z" fill="white"/>
<path d="M288.033 100.73C286.375 100.73 285.034 100.285 284.02 99.3941C283.006 98.5032 282.499 97.2048 282.499 95.5036C282.499 94.4279 282.745 93.4944 283.242 92.6983C283.74 91.9022 284.413 91.2956 285.261 90.8833C286.114 90.4663 287.062 90.2578 288.109 90.2578C289.213 90.2578 290.185 90.4616 291.028 90.8691C291.872 91.2766 292.53 91.8832 293.009 92.6888C293.488 93.4944 293.725 94.4658 293.725 95.6079C293.725 96.6836 293.478 97.6076 292.981 98.3848C292.483 99.1619 291.801 99.7448 290.938 100.143C290.071 100.536 289.104 100.735 288.029 100.735L288.033 100.73ZM289.891 95.6031C289.891 94.9207 289.739 94.3663 289.431 93.9303C289.123 93.4944 288.697 93.2764 288.157 93.2764C287.583 93.2764 287.138 93.4754 286.82 93.8688C286.498 94.2621 286.342 94.807 286.342 95.5036C286.342 96.2002 286.493 96.7215 286.792 97.1148C287.09 97.5081 287.522 97.7071 288.076 97.7071C288.664 97.7071 289.109 97.5318 289.427 97.1764C289.739 96.821 289.896 96.2997 289.896 95.6031H289.891Z" fill="white"/>
<path d="M295.838 93.9295H294.203V91.0104H295.838V90.0911C295.838 89.2476 296.051 88.5273 296.482 87.9349C296.909 87.3426 297.478 86.8972 298.188 86.5986C298.895 86.3001 299.657 86.1484 300.472 86.1484C300.937 86.1484 301.444 86.2385 301.994 86.4233C302.543 86.6081 302.951 86.8071 303.207 87.0251L302.145 89.5556C301.681 89.295 301.207 89.167 300.714 89.167C300.359 89.167 300.079 89.2855 299.866 89.5224C299.657 89.7594 299.548 90.0816 299.548 90.4939V91.0057H302.283L302.629 93.9247H299.544V105.198H295.829V93.9247L295.838 93.9295Z" fill="white"/>
<path d="M307.752 90.6016V100.506H304.037V90.6016H307.752Z" fill="white"/>
<path d="M315.315 93.277C315.097 93.277 314.789 93.3338 314.395 93.4523C314.002 93.566 313.642 93.6987 313.315 93.8504V100.508H309.6V90.6043H311.803L312.457 91.6231C313.898 90.7228 315.248 90.2773 316.499 90.2773C317.75 90.2773 318.594 90.628 319.196 91.3293C319.793 92.0307 320.096 92.9595 320.096 94.1157V100.508H316.381V94.4664C316.381 94.1252 316.3 93.8456 316.134 93.6182C315.973 93.3955 315.698 93.2817 315.319 93.2817L315.315 93.277Z" fill="white"/>
<path d="M307.917 87.2533C307.917 87.7983 307.718 88.2674 307.315 88.6608C306.912 89.0541 306.433 89.2531 305.874 89.2531C305.315 89.2531 304.86 89.0541 304.467 88.6608C304.074 88.2674 303.875 87.7983 303.875 87.2533C303.875 86.7084 304.074 86.2156 304.467 85.8128C304.86 85.41 305.329 85.2109 305.874 85.2109C306.419 85.2109 306.912 85.41 307.315 85.8128C307.718 86.2156 307.917 86.6942 307.917 87.2533Z" fill="white"/>
<path d="M173.626 100.688C172.361 100.688 171.333 100.242 170.546 99.3466C169.759 98.451 169.361 97.1952 169.361 95.5746C169.361 93.9539 169.755 92.6982 170.546 91.8025C171.337 90.9069 172.361 90.4615 173.626 90.4615C174.977 90.4615 176.019 90.9353 176.754 91.8784H176.849V87.2344H178.275V100.508H177.138L176.943 99.1855H176.849C176.138 100.19 175.067 100.692 173.626 100.692V100.688ZM171.607 98.3799C172.157 99.0386 172.892 99.3656 173.816 99.3656C174.74 99.3656 175.474 99.0386 176.024 98.3799C176.574 97.7212 176.849 96.7877 176.849 95.5746C176.849 94.3615 176.574 93.4279 176.024 92.7692C175.474 92.1106 174.74 91.7836 173.816 91.7836C172.892 91.7836 172.157 92.1106 171.607 92.7692C171.058 93.4279 170.783 94.3615 170.783 95.5746C170.783 96.7877 171.058 97.7212 171.607 98.3799Z" fill="white"/>
<path d="M185.094 100.687C183.73 100.687 182.63 100.242 181.796 99.3461C180.962 98.4505 180.541 97.1947 180.541 95.5741C180.541 93.9534 180.953 92.6976 181.782 91.802C182.611 90.9064 183.678 90.4609 184.995 90.4609C185.715 90.4609 186.374 90.6031 186.962 90.8874C187.549 91.1718 188.023 91.5414 188.374 91.9916C188.724 92.4417 188.994 92.9298 189.179 93.4511C189.364 93.9676 189.459 94.4889 189.459 95.0054L189.359 95.9484H181.972C182.019 97.0478 182.332 97.8913 182.905 98.4789C183.479 99.0665 184.208 99.3651 185.099 99.3651C186.237 99.3651 187.085 98.8912 187.653 97.9482H189.17C188.843 98.8296 188.322 99.5072 187.611 99.9811C186.9 100.455 186.061 100.687 185.099 100.687H185.094ZM181.967 94.7163H188.028C187.942 93.7923 187.62 93.072 187.066 92.5555C186.511 92.0389 185.82 91.7831 184.995 91.7831C184.17 91.7831 183.483 92.0389 182.924 92.5555C182.365 93.072 182.047 93.7923 181.962 94.7163H181.967Z" fill="white"/>
</g>
<defs>
<clipPath id="clip0_11061_59095">
<rect width="336" height="105.412" fill="white"/>
</clipPath>
</defs>
</svg>
