<svg width="29" height="48" viewBox="0 0 29 48" fill="none" xmlns="http://www.w3.org/2000/svg">
<path d="M28.9126 5.06149C26.5394 3.17506 23.8345 1.77168 20.9444 0.927444V5.36474H18.2331V0.309746C15.7463 -0.100852 13.2113 -0.103251 10.7237 0.302647V5.36474H8.01219V0.915167C5.10876 1.75733 2.3911 3.16352 0.00766817 5.05691L0.004704 5.06531H0.00935277L0.00512746 31.0398H0V33.8587C0.0342669 33.8587 0.0684724 33.8574 0.102558 33.8573L14.4601 47.3034L25.6198 37.3479L23.669 35.3527L14.4609 43.4821L3.85424 33.5486C6.1127 33.1871 8.31155 32.5085 10.3885 31.532L10.3915 31.5382L10.5893 31.4365C10.9529 31.2612 11.312 31.0766 11.6668 30.8829C13.6896 29.9248 15.844 29.2893 18.055 28.9986L19.2563 28.8395V21.6273C19.2563 20.3238 18.75 19.0737 17.8487 18.1519C16.9475 17.2302 15.7252 16.7124 14.4507 16.7124C13.1762 16.7124 11.9538 17.2302 11.0526 18.1519C10.1514 19.0737 9.64511 20.3238 9.64511 21.6273V28.7545C9.51677 28.8217 9.38887 28.89 9.26142 28.9594C7.20285 29.9303 5.01045 30.5712 2.7612 30.8599L2.76506 6.4887C3.64225 5.8777 4.56418 5.33676 5.52265 4.87065V5.06593V7.88442L8.27847 7.88478H10.3212L13.0777 7.88515V2.86465C13.5371 2.83372 13.997 2.81822 14.4572 2.81818C14.9174 2.81814 15.3782 2.83368 15.8396 2.86482V5.06697V7.88553L18.5955 7.88589H20.6412L23.3976 7.88626V5.0671V4.87298C24.3577 5.34026 25.2811 5.88267 26.1595 6.49537V30.4078C25.6101 30.344 25.0577 30.3117 24.5048 30.3111C20.8018 30.306 17.2353 31.7404 14.5275 34.3238L16.3731 36.3516C18.0235 34.7757 20.078 33.7123 22.2969 33.2852C24.5159 32.8582 26.8078 33.0852 28.9054 33.9398L28.9157 33.9439V5.06889V5.06518L28.9126 5.06149ZM12.4012 21.6273C12.4041 21.0733 12.6213 20.5431 13.0054 20.1525C13.3894 19.7618 13.909 19.5425 14.4507 19.5425C14.9923 19.5425 15.5119 19.7618 15.8959 20.1525C16.28 20.5431 16.4972 21.0733 16.5001 21.6273V26.3921C15.1044 26.6476 13.733 27.0263 12.4012 27.5241V21.6273Z" fill="white"/>
</svg>
